<mxfile host="app.diagrams.net" modified="2023-06-07T08:04:37.510Z" agent="Mozilla/5.0 (Windows NT 10.0; Win64; x64) AppleWebKit/537.36 (KHTML, like Gecko) Chrome/114.0.0.0 Safari/537.36 Edg/114.0.1823.37" version="21.3.5" etag="6_rrBKq6a-8S9zXKiUBg" type="github">
  <diagram name="Page-1" id="TUmWOgMZseRN9FJicNIk">
    <mxGraphModel>
      <root>
        <mxCell id="0" />
        <mxCell id="1" parent="0" />
      </root>
    </mxGraphModel>
  </diagram>
</mxfile>
